<?xml version="1.0" standalone="no"?>
<!DOCTYPE svg PUBLIC "-//W3C//DTD SVG 20010904//EN"
 "http://www.w3.org/TR/2001/REC-SVG-20010904/DTD/svg10.dtd">
<svg version="1.0" xmlns="http://www.w3.org/2000/svg"
 width="792.000000pt" height="792.000000pt" viewBox="0 0 792.000000 792.000000"
 preserveAspectRatio="xMidYMid meet">
<metadata>
Created by potrace 1.11, written by Peter Selinger 2001-2013
</metadata>
<g transform="translate(0.000000,792.000000) scale(0.100000,-0.100000)"
fill="#000000" stroke="none">
<path d="M3669 7906 c-2 -2 -42 -6 -88 -10 -278 -21 -640 -101 -926 -204 -338
-122 -666 -294 -960 -506 -222 -160 -482 -397 -666 -606 -376 -427 -663 -936
-838 -1485 -23 -71 -43 -137 -45 -145 -1 -8 -8 -33 -14 -56 -13 -44 -61 -274
-67 -314 -2 -14 -6 -41 -9 -60 -13 -77 -16 -97 -22 -155 -3 -33 -8 -71 -11
-85 -9 -42 -11 -611 -3 -675 5 -33 11 -87 14 -120 3 -33 8 -69 10 -80 2 -11 7
-42 10 -70 61 -431 249 -947 494 -1355 65 -108 195 -305 212 -320 3 -3 25 -32
50 -65 123 -165 370 -429 529 -565 36 -30 73 -63 82 -72 10 -9 69 -56 131
-103 62 -47 118 -89 123 -93 6 -4 52 -36 104 -71 303 -202 672 -380 1016 -490
117 -38 360 -103 425 -115 14 -2 52 -9 85 -15 33 -6 78 -13 100 -16 22 -4 67
-10 100 -15 217 -33 789 -35 949 -4 12 2 41 6 66 9 97 11 191 28 330 61 708
169 1334 519 1856 1039 449 447 783 980 989 1575 43 124 118 392 131 470 3 14
9 48 14 75 18 90 28 148 35 210 4 28 8 61 10 74 14 85 20 219 20 446 0 223
-10 438 -20 455 -2 3 -6 30 -9 61 -11 103 -56 322 -96 469 -106 392 -262 740
-488 1090 -50 77 -216 308 -231 320 -3 3 -26 30 -51 60 -25 30 -54 66 -65 79
-11 14 -90 95 -175 180 -326 326 -661 569 -1075 777 -343 172 -732 303 -1065
359 -19 3 -42 8 -50 10 -8 3 -35 7 -60 10 -25 3 -54 7 -65 9 -11 2 -49 7 -85
11 -36 4 -76 10 -90 12 -31 5 -606 14 -611 9z m48 -800 c7 -1 16 -5 19 -9 4
-4 14 -7 23 -7 23 0 211 -92 278 -136 134 -88 206 -148 343 -284 314 -315 595
-772 818 -1335 53 -134 163 -464 200 -600 l29 -110 -32 -7 c-18 -4 -43 -9 -57
-12 -14 -2 -112 -22 -219 -45 -107 -22 -205 -42 -219 -45 -14 -2 -43 -9 -65
-14 -22 -6 -53 -13 -70 -15 -16 -3 -142 -28 -278 -57 -137 -29 -250 -51 -252
-49 -2 3 -90 417 -119 559 -4 22 -16 78 -31 150 -2 14 -19 93 -36 175 -17 83
-44 213 -60 290 -39 186 -201 968 -214 1030 -2 11 -22 110 -45 220 -23 110
-43 207 -45 216 -2 9 -8 33 -13 52 -11 39 -6 51 17 41 9 -3 21 -7 28 -8z
m1278 -45 c296 -97 502 -195 755 -359 47 -30 87 -59 88 -63 2 -5 8 -9 14 -9
11 0 187 -136 248 -191 330 -298 564 -604 754 -984 88 -176 207 -478 193 -491
-2 -3 -13 -6 -23 -8 -69 -14 -542 -111 -584 -121 -84 -19 -280 -57 -299 -58
-23 -2 -27 6 -58 113 -122 425 -300 859 -508 1235 -86 155 -204 349 -216 353
-5 2 -9 7 -9 12 0 11 -50 85 -136 200 -108 145 -195 249 -308 368 -22 23 -38
42 -35 42 3 0 59 -18 124 -39z m-2011 -133 c14 -75 24 -120 41 -198 3 -14 7
-36 10 -50 2 -14 23 -113 46 -220 45 -215 43 -204 64 -310 20 -97 21 -102 39
-185 8 -39 17 -82 19 -95 3 -14 12 -59 20 -100 9 -41 18 -86 21 -100 2 -14 21
-101 41 -195 20 -93 43 -204 51 -245 23 -114 23 -115 55 -265 17 -77 41 -194
54 -261 14 -67 27 -127 29 -135 3 -8 7 -27 10 -44 5 -33 8 -47 37 -188 11 -54
19 -100 17 -102 -3 -3 -101 -25 -178 -39 -14 -2 -59 -12 -100 -21 -41 -9 -86
-19 -100 -21 -23 -4 -161 -33 -335 -69 -38 -9 -79 -17 -90 -19 -11 -2 -99 -20
-195 -41 -275 -57 -280 -58 -285 -54 -4 5 -20 102 -30 184 -3 28 -7 64 -9 80
-4 33 -15 144 -21 215 -9 105 -18 315 -18 440 0 130 11 413 18 448 1 9 6 49 9
87 4 39 11 95 16 125 5 30 12 73 15 95 60 418 248 888 446 1120 90 105 247
245 275 245 7 0 19 -37 28 -82z m-1263 -640 c-54 -166 -117 -417 -141 -568 -7
-41 -14 -84 -16 -95 -15 -75 -33 -216 -49 -380 -19 -199 -24 -591 -11 -840 7
-134 8 -157 20 -270 3 -27 8 -75 11 -105 3 -30 7 -66 10 -80 2 -14 7 -48 10
-77 6 -50 5 -51 -22 -57 -15 -3 -156 -32 -313 -65 -157 -33 -298 -62 -313 -65
-16 -3 -62 -12 -103 -22 -41 -9 -77 -14 -80 -12 -21 22 -22 610 0 723 2 11 7
47 10 80 4 33 14 92 21 130 8 39 16 82 19 96 9 55 77 298 105 379 98 279 256
584 421 812 39 54 164 211 194 245 53 57 241 242 244 238 2 -2 -5 -32 -17 -67z
m5480 -2045 c1 -16 3 -48 5 -73 12 -133 5 -541 -10 -626 -2 -11 -7 -46 -11
-79 -4 -32 -9 -68 -11 -80 -2 -11 -11 -56 -19 -100 -9 -44 -20 -98 -26 -120
-6 -22 -13 -48 -15 -59 -2 -10 -15 -58 -28 -106 -128 -442 -396 -916 -705
-1244 -110 -116 -320 -310 -328 -302 -2 2 10 41 26 87 30 87 79 245 86 276 2
10 12 54 23 98 11 44 25 105 31 135 6 30 14 66 16 80 17 86 51 310 60 405 4
33 8 71 10 85 27 171 26 858 0 1083 -2 15 -6 61 -10 103 -3 41 -8 83 -10 93
-2 10 -6 42 -10 72 -3 30 -8 66 -11 80 l-5 26 198 41 c109 23 207 44 218 46
11 2 90 19 175 36 85 18 166 34 180 36 14 3 50 11 80 18 83 21 90 20 91 -11z
m-1627 -330 c5 -18 10 -52 21 -148 4 -27 8 -61 10 -75 4 -23 11 -101 21 -205
19 -208 24 -615 11 -817 -7 -101 -40 -384 -51 -438 -3 -13 -8 -41 -11 -61 -8
-51 -62 -270 -85 -344 -81 -262 -208 -519 -331 -671 -40 -49 -197 -204 -206
-204 -6 0 -16 33 -23 72 -8 40 -15 78 -16 83 -4 20 -13 61 -23 110 -10 52 -79
377 -105 500 -8 39 -17 82 -19 95 -3 14 -8 36 -11 50 -3 14 -8 36 -10 50 -3
14 -9 45 -14 70 -6 25 -19 90 -30 145 -12 55 -39 188 -62 295 -22 107 -47 229
-56 270 -8 41 -58 278 -110 527 -52 249 -94 456 -94 461 0 5 37 16 83 26 45 9
134 28 197 41 63 14 130 27 149 30 19 3 37 7 40 9 3 2 22 7 41 10 49 8 67 12
225 45 77 17 154 33 170 36 17 3 80 16 140 30 135 29 142 29 149 8z m-1866
-475 c12 -57 37 -177 56 -268 19 -91 42 -201 51 -245 9 -44 45 -220 81 -392
36 -172 67 -320 68 -330 2 -10 18 -85 36 -168 17 -82 49 -235 70 -340 37 -178
68 -329 157 -753 19 -95 33 -175 30 -179 -3 -3 -39 3 -79 12 -708 172 -1377
1077 -1743 2358 -23 79 -33 133 -28 138 5 5 20 12 34 14 13 3 47 9 75 15 28 6
64 13 80 16 16 3 67 14 114 24 47 10 101 22 120 25 19 3 42 8 50 10 12 4 456
96 578 120 15 3 65 14 112 24 47 11 92 19 101 20 13 1 21 -22 37 -101z m-1968
-425 c69 -242 196 -592 292 -805 56 -124 190 -389 235 -466 24 -41 43 -75 43
-77 0 -16 215 -342 303 -460 62 -82 209 -263 246 -302 12 -12 21 -24 21 -27 0
-2 -24 5 -52 16 -29 11 -64 23 -78 28 -52 17 -194 81 -308 139 -605 311 -1097
822 -1401 1456 -74 155 -179 430 -168 441 2 3 15 7 28 9 20 4 150 30 244 49
11 3 40 9 65 15 25 5 56 12 70 15 115 22 386 79 389 82 2 2 12 4 21 4 12 0 24
-29 50 -117z"/>
</g>
</svg>
